<svg width="31" height="18" viewBox="0 0 31 18" fill="none" xmlns="http://www.w3.org/2000/svg">
<path fill-rule="evenodd" clip-rule="evenodd" d="M29.3471 1.32568C29.5626 0.642715 29.3471 0.14623 28.3935 0.14623H25.2226C24.4228 0.14623 24.0535 0.580957 23.8379 1.04596C23.8379 1.04596 22.2068 5.01783 19.929 7.59289C19.1903 8.33762 18.8519 8.58586 18.4517 8.58586C18.2361 8.58586 17.9588 8.33762 17.9588 7.65525V1.29359C17.9588 0.487109 17.713 0.114746 17.0355 0.114746H12.0488C11.556 0.114746 11.2484 0.48711 11.2484 0.859473C11.2484 1.63508 12.3873 1.82156 12.5102 3.99338V8.7124C12.5102 9.73625 12.3286 9.92334 11.9253 9.92334C10.8482 9.92334 8.23195 5.92059 6.66258 1.35959C6.35742 0.45623 6.04742 0.114746 5.24699 0.114746H2.04588C1.12254 0.114746 0.96875 0.548867 0.96875 1.01447C0.96875 1.85244 2.04588 6.07195 5.98566 11.6568C8.60189 15.4713 12.3261 17.5214 15.681 17.5214C17.713 17.5214 17.9588 17.0558 17.9588 16.2802V13.3945C17.9588 12.4639 18.1435 12.3089 18.7901 12.3089C19.2515 12.3089 20.0828 12.5565 21.9604 14.3875C24.1146 16.5593 24.4839 17.5522 25.6846 17.5522H28.8548C29.7782 17.5522 30.2093 17.0866 29.9628 16.1869C29.6861 15.2872 28.6393 13.9842 27.2848 12.433C26.5462 11.5648 25.4382 10.6027 25.0997 10.1371C24.6383 9.51647 24.7613 9.26822 25.0997 8.70998C25.0688 8.70998 28.9475 3.18689 29.3471 1.32326" fill="#67C2EF"/>
</svg>
