<svg width="47" height="34" viewBox="0 0 47 34" fill="none" xmlns="http://www.w3.org/2000/svg">
<path d="M10.3179 12.3335C12.3493 12.3335 14.3351 12.9493 16.0242 14.1031C17.7132 15.2568 19.0297 16.8967 19.8071 18.8153C20.5845 20.7339 20.7879 22.8451 20.3916 24.8819C19.9952 26.9187 19.017 28.7897 17.5806 30.2581C16.1442 31.7266 14.3141 32.7266 12.3217 33.1317C10.3293 33.5369 8.26417 33.3289 6.3874 32.5342C4.51062 31.7395 2.90651 30.3937 1.77793 28.667C0.649335 26.9403 0.046953 24.9102 0.046953 22.8335L0 21.3335C0 15.7639 2.16424 10.4225 6.0166 6.48425C9.86896 2.54599 15.0939 0.333496 20.542 0.333496V6.3335C18.6142 6.3282 16.7046 6.71362 14.9235 7.46749C13.1424 8.22135 11.5252 9.3287 10.1653 10.7255C9.6368 11.2648 9.14923 11.8445 8.70685 12.4595C9.23214 12.3755 9.76917 12.3305 10.315 12.3305L10.3179 12.3335ZM36.729 12.3335C38.7604 12.3335 40.7462 12.9493 42.4353 14.1031C44.1243 15.2568 45.4408 16.8967 46.2182 18.8153C46.9956 20.7339 47.199 22.8451 46.8026 24.8819C46.4063 26.9187 45.4281 28.7897 43.9917 30.2581C42.5553 31.7266 40.7252 32.7266 38.7328 33.1317C36.7404 33.5369 34.6753 33.3289 32.7985 32.5342C30.9217 31.7395 29.3176 30.3937 28.189 28.667C27.0604 26.9403 26.458 24.9102 26.458 22.8335L26.4111 21.3335C26.4111 15.7639 28.5753 10.4225 32.4277 6.48425C36.2801 2.54599 41.505 0.333496 46.953 0.333496V6.3335C45.0253 6.3282 43.1157 6.71362 41.3346 7.46749C39.5535 8.22135 37.9363 9.3287 36.5764 10.7255C36.0479 11.2648 35.5603 11.8445 35.1179 12.4595C35.6432 12.3755 36.1803 12.3305 36.729 12.3305V12.3335Z" fill="white"/>
</svg>
